<svg width="650" height="600" viewBox="0 0 650 600" fill="none" xmlns="http://www.w3.org/2000/svg" style="width: 100%; height: 100%;">
<g clip-path="url(#clip0_35_946)">
<path d="M461.247 170.583C465.903 161.762 469.887 154.447 474.543 145.626C475.258 144.271 477.035 141.717 478.615 142.813C479.741 143.594 479.459 147.776 475.299 154.318C479.301 147.275 481.268 144.197 485.27 137.154C485.776 136.263 486.45 135.264 487.391 135.269C488.355 135.273 489.031 136.428 489.006 137.498C488.981 138.567 488.46 139.544 487.956 140.465C485.06 145.748 485.311 146.368 482.416 151.651C486.037 144.721 486.138 143.78 490.544 137.424C491.273 136.372 492.354 135.202 493.468 135.632C495.977 137.006 493.112 141.522 490.956 145.082C489.721 147.121 488.522 149.048 485.443 153.777C488.693 149.18 489.785 147.127 493.045 142.539C493.657 141.678 494.324 140.772 495.258 140.422C496.192 140.072 497.438 140.584 497.557 141.661C497.632 142.346 497.249 142.988 496.884 143.557C493.5 148.825 492.704 151.026 489.321 156.294C491.832 152.507 492.097 152.064 495.234 148.901C496.166 147.962 497.671 147.055 498.519 148.054C499.302 148.977 498.6 150.483 497.894 151.507C490.94 161.594 485.172 168.507 478.218 178.594" fill="white"></path>
<path d="M461.247 170.583C465.903 161.762 469.887 154.447 474.543 145.626C475.258 144.271 477.035 141.717 478.615 142.813C479.741 143.594 479.459 147.776 475.299 154.318C479.301 147.275 481.268 144.197 485.27 137.154C485.776 136.263 486.45 135.264 487.391 135.269C488.355 135.273 489.031 136.428 489.006 137.498C488.981 138.567 488.46 139.544 487.956 140.465C485.06 145.748 485.311 146.368 482.416 151.651C486.037 144.721 486.138 143.78 490.544 137.424C491.273 136.372 492.354 135.202 493.468 135.632C495.977 137.006 493.112 141.522 490.956 145.082C489.721 147.121 488.522 149.048 485.443 153.777C488.693 149.18 489.785 147.127 493.045 142.539C493.657 141.678 494.324 140.772 495.258 140.422C496.192 140.072 497.438 140.584 497.557 141.661C497.632 142.346 497.249 142.988 496.884 143.557C493.5 148.825 492.704 151.026 489.321 156.294C491.832 152.507 492.097 152.064 495.234 148.901C496.166 147.962 497.671 147.055 498.519 148.054C499.302 148.977 498.6 150.483 497.894 151.507C490.94 161.594 485.172 168.507 478.218 178.594" stroke="#010101" stroke-width="1.5" stroke-linecap="round" stroke-linejoin="round"></path>
<path d="M475.299 154.318C476.687 155.719 477.964 157.265 478.797 159.053C479.631 160.84 479.995 162.896 479.523 164.811" fill="white"></path>
<path d="M475.299 154.318C476.687 155.719 477.964 157.265 478.797 159.053C479.631 160.84 479.995 162.896 479.523 164.811" stroke="#010101" stroke-width="1.5" stroke-linecap="round" stroke-linejoin="round"></path>
<path d="M276.423 547.689L444.154 402.583C444.154 402.583 337.714 328.885 279.949 297.857C221.789 330.352 166.84 366.234 116.329 409.077C120.433 417.881 276.422 547.689 276.422 547.689H276.423Z" fill="white" stroke="#010101" stroke-width="1.5" stroke-linecap="round" stroke-linejoin="round"></path>
<path d="M323.45 217.543C332.982 215.403 343.41 212.315 353.172 212.699C361.672 213.034 369.962 215.282 378.225 217.302C392.727 220.847 407.391 223.727 422.157 225.929C435.36 204.614 448.478 182.999 461.272 161.193C470.323 167.097 479.125 171.767 487.911 176.427C482.053 191.902 474.666 207.185 466.838 222.239C459.098 237.124 450.533 252.247 437.09 262.283C434.663 264.095 432.069 265.736 429.207 266.725C425.505 268.005 421.513 268.144 417.597 268.088C396.896 267.792 376.642 262.428 356.637 257.099C353.335 291.518 351.324 325.668 349.313 359.818C312.771 363.143 275.796 366.868 238.936 371.509C238.572 361.638 239.008 351.488 238.877 341.346C228.618 343.161 202.117 352.336 188.841 346.999C186.31 345.982 183.906 344.496 182.221 342.351C179.739 339.193 179.071 334.943 179.303 330.933C179.67 324.578 182.046 318.519 184.706 312.736C193.421 293.792 202.917 277.575 214.848 260.473C217.348 256.889 219.86 253.291 222.857 250.111C235.352 236.854 254.382 232.533 271.613 229.464C280.843 235.165 291.017 239.333 301.593 241.746C302.902 242.045 304.28 242.315 305.572 241.947C307.069 241.52 308.193 240.312 309.228 239.15C316.599 230.871 322.798 223.166 323.452 217.543H323.45Z" fill="#008653" stroke="#010101" stroke-width="1.5" stroke-linecap="round" stroke-linejoin="round"></path>
<path d="M244.626 284.403C244.626 284.403 233.127 302.093 227.38 309.667C233.437 308.173 245.552 305.184 245.552 305.184L244.626 284.403Z" stroke="#010101" stroke-width="1.5" stroke-linecap="round" stroke-linejoin="round"></path>
<path d="M316.174 166.28C314.983 163.336 313.761 160.379 312.015 157.726C310.269 155.073 307.949 152.714 305.053 151.41C300.722 149.459 295.703 150.073 291.046 151.01C288.055 151.612 285.075 152.334 282.242 153.466C275.371 156.212 269.511 161.413 265.969 167.91C262.427 174.407 261.23 182.15 262.665 190.227C262.118 189.203 254.071 188.818 250.221 192.669C246.177 196.713 244.057 200.947 244.761 206.623C245.465 212.299 249.078 217.506 254.082 220.276C259.086 223.046 265.347 223.358 270.657 221.231C273.009 220.289 275.216 218.86 276.758 216.85C278.507 214.571 279.299 211.7 279.728 208.86C280.392 204.462 280.739 201.939 278.505 198.071C282.651 196.932 286.751 195.514 290.486 193.384C294.221 191.254 297.595 188.378 299.881 184.736C300.635 183.535 301.281 182.204 301.005 181.168C303.911 174.735 309.418 169.523 316.175 166.281L316.174 166.28Z" fill="#010101" stroke="#010101" stroke-width="1.5" stroke-linecap="round" stroke-linejoin="round"></path>
<path d="M281.741 190.573C281.193 189.142 279.613 188.181 278.09 188.356C276.398 188.549 275.08 189.947 274.28 191.449C273.057 193.744 272.71 196.577 273.71 198.978C274.71 201.379 277.179 203.198 279.778 203.087C281.224 203.025 282.695 202.325 283.464 201.352C283.745 209.763 284.026 218.175 284.018 226.528C279.894 227.383 275.799 228.378 271.191 229.15C272.568 235.994 273.945 242.837 275.322 249.681C275.8 252.054 276.422 254.659 278.399 256.056C279.625 256.922 281.174 257.164 282.666 257.323C295.641 258.708 308.644 255.636 321.262 252.311C322.937 251.87 324.679 251.387 325.966 250.228C328.101 248.304 328.397 245.113 328.498 242.241C328.804 233.597 328.663 224.936 327.872 216.603C321.707 217.777 316.853 219.275 310.317 221.131C310.111 217.227 310.07 213.313 310.319 208.977C315.903 206.617 319.988 202.49 321.556 196.634C322.316 193.797 322.127 190.798 321.785 187.882C320.87 180.084 318.887 172.412 315.529 164.831C311.953 164.582 308.364 164.112 304.97 162.958C301.576 161.804 298.367 159.929 295.648 157.615C296.489 163.801 294.579 170.02 292.263 175.817C290.173 181.047 287.521 186.389 281.742 190.573H281.741Z" fill="white" stroke="#010101" stroke-width="1.5" stroke-linecap="round" stroke-linejoin="round"></path>
<path d="M309.102 175.373C310.576 177.602 312.037 179.839 313.485 182.085C313.623 182.299 313.767 182.543 313.713 182.792C313.677 182.957 313.558 183.091 313.441 183.213C312.488 184.195 311.272 184.921 309.956 185.294" stroke="#010101" stroke-width="1.5" stroke-linecap="round" stroke-linejoin="round"></path>
<path d="M299.139 209.097C302.615 209.726 307.469 209.645 310.913 208.859" stroke="#010101" stroke-width="1.5" stroke-linecap="round" stroke-linejoin="round"></path>
<path d="M281.16 346.143C320.895 336.735 360.822 328.139 400.909 320.361C403.022 321.075 404.978 321.855 406.914 322.631C411.228 324.359 415.542 326.086 419.856 327.814C414.961 301.773 409.877 276.644 404.333 251.616C361.455 257.516 317.255 265.983 272.144 274.782C277.343 297.242 280.534 320.165 281.161 346.143H281.16Z" fill="white" stroke="#010101" stroke-width="1.5" stroke-linecap="round" stroke-linejoin="round"></path>
<path d="M298.678 289.97C330.355 283.749 362.133 278.04 393.995 272.845" stroke="#010101" stroke-width="1.5" stroke-linecap="round" stroke-linejoin="round"></path>
<path d="M302.151 304.527C333.156 299.424 361.991 293.322 392.996 288.219" stroke="#010101" stroke-width="1.5" stroke-linecap="round" stroke-linejoin="round"></path>
<path d="M302.151 320.169C318.093 318.251 342.945 312.802 358.637 309.403" stroke="#010101" stroke-width="1.5" stroke-linecap="round" stroke-linejoin="round"></path>
<path d="M240.742 365.932C234.644 398.852 226.346 437.735 219.543 470.154C234.351 479.723 254.628 491.948 269.765 500.45C277.68 474.552 281.761 457.46 290.989 421.705C298.089 443.787 304.056 466.233 309.427 488.657C320.8 481.6 332.173 474.543 343.546 467.485C347.948 464.754 350.132 463.497 353.907 459.95C353.548 460.355 349.95 398.405 348.601 356.349C316.621 358.598 241.344 367.279 240.742 365.932Z" fill="#010101" stroke="#010101" stroke-width="1.5" stroke-linecap="round" stroke-linejoin="round"></path>
<path d="M95.376 598.467L409.912 598.027L444.155 402.582L280.4 506.056C280.4 506.056 135.859 422.057 116.331 409.076C112.644 449.343 95.377 598.466 95.377 598.466L95.376 598.467Z" fill="#E3E3FF" stroke="#010101" stroke-width="1.5" stroke-linecap="round" stroke-linejoin="round"></path>
<path d="M68.522 597.758C65.031 584.799 60.563 573.035 57.193 560.044C53.822 547.054 52.368 533.11 56.463 520.329C59.851 509.755 68.774 499.595 79.869 500.022C84.932 500.217 89.652 502.585 93.933 505.295C109.447 515.115 121.324 529.898 130.245 545.946C139.166 561.993 144.099 580.989 149.785 598.466C126.295 599.015 103.323 597.97 68.523 597.757L68.522 597.758Z" fill="#55D087" stroke="#010101" stroke-width="1.5" stroke-linecap="round" stroke-linejoin="round"></path>
<path d="M574.877 24.856C573.994 33.887 572.65 42.868 570.855 51.745C581.494 45.721 592.206 39.843 602.987 34.112C603.049 28.359 603.862 22.615 605.395 17.097C596.723 18.721 588.186 21.157 574.877 24.856Z" fill="#007787 " stroke="#010101" stroke-width="1.5" stroke-linecap="round" stroke-linejoin="round"></path>
<path d="M499.04 122.593C510.335 98.6361 528.632 78.0311 551.085 63.9811" stroke="#010101" stroke-width="1.5" stroke-linecap="round" stroke-linejoin="round"></path>
<path d="M516.955 68.6851C524.997 58.5521 534.739 49.7731 545.65 42.8251" stroke="#010101" stroke-width="1.5" stroke-linecap="round" stroke-linejoin="round"></path>
<path d="M70.435 597.694C65.009 583.325 55.061 551.977 44.636 540.697C38.942 534.536 32.616 528.684 24.904 525.381C21.394 523.877 17.566 522.924 13.763 523.274C9.95998 523.624 6.18498 525.399 3.96798 528.509C1.95898 531.326 1.39198 534.904 1.09198 538.351C-0.399023 555.453 2.90498 581.969 12.381 598.468C26.615 597.957 52.642 598.334 70.434 597.696L70.435 597.694Z" fill="#55D087" stroke="#010101" stroke-width="1.5" stroke-linecap="round" stroke-linejoin="round"></path>
<path d="M74.458 500.45C81.409 534.18 98.167 565.133 106.804 598.471" stroke="#010101" stroke-width="1.5" stroke-linecap="round" stroke-linejoin="round"></path>
<path d="M12.512 523.637C18.199 548.855 26.257 573.538 36.544 597.254" stroke="#010101" stroke-width="1.5" stroke-linecap="round" stroke-linejoin="round"></path>
<path d="M577.954 59.75C577.954 59.75 584.833 37.68 589.2 27.028C579.247 25.255 568.505 22.671 557.179 18.862C587.772 12.413 618.442 6.37502 649.179 0.749023C639.691 11.86 577.954 59.75 577.954 59.75Z" fill="#007787 " stroke="#010101" stroke-width="1.5" stroke-linecap="round" stroke-linejoin="round"></path>
<path d="M588.549 26.557C608.916 16.874 623.121 11.351 649.178 0.75Z" fill="#007787 "></path>
<path d="M588.549 26.557C608.916 16.874 623.121 11.351 649.178 0.75" stroke="#010101" stroke-width="1.5" stroke-linecap="round" stroke-linejoin="round"></path>
<path d="M25.298 564.122C31.021 556.386 37.293 549.057 44.053 542.208Z" fill="#55D087"></path>
<path d="M25.298 564.122C31.021 556.386 37.293 549.057 44.053 542.208" stroke="#010101" stroke-width="1.5" stroke-linecap="round" stroke-linejoin="round"></path>
<path d="M96.446 563.872C102.218 551.84 109.6 536.896 116.331 525.373Z" fill="#55D087"></path>
<path d="M96.446 563.872C102.218 551.84 109.6 536.896 116.331 525.373" stroke="#010101" stroke-width="1.5" stroke-linecap="round" stroke-linejoin="round"></path>
<path d="M59.227 566.625C73.34 570.33 87.298 574.624 101.053 579.493Z" fill="#55D087"></path>
<path d="M59.227 566.625C73.34 570.33 87.298 574.624 101.053 579.493" stroke="#010101" stroke-width="1.5" stroke-linecap="round" stroke-linejoin="round"></path>
<path d="M291.559 311.826C288.797 312.528 288.358 312.889 281.77 314.359C288.401 313.107 288.25 312.955 294.881 311.722C296.128 311.494 297.46 311.267 298.567 311.665C299.674 312.073 300.362 313.363 299.588 314.292C299.094 314.88 298.219 315.061 297.439 315.288C291.982 316.872 290.421 317.422 283.629 319.006C288.39 317.982 289.389 317.384 294.579 317.194C296.17 317.128 298.244 317.507 298.168 318.892C298.114 320.182 296.255 320.846 294.793 321.14C280.414 323.995 276.857 324.09 262.467 326.945L262.36 326.385C261.984 318.902 261.06 314.027 260.802 305.672C269.518 303.016 266.799 304.23 277.137 300.674C277.266 300.674 277.932 304.913 277.997 305.549C278.008 305.596 277.933 305.852 276.793 306.346C279.308 305.436 282.905 304.328 291.91 302.232C293.103 301.957 294.84 302.107 295.44 302.855C296.112 303.693 295.943 305.092 295.04 305.908C294.471 306.43 286.249 308.355 279.637 310.03C281.367 309.546 290.633 307.152 295.04 306.289C296.545 305.995 299.054 306.15 299.688 307.288C300.841 309.926 296.372 310.602 291.557 311.826H291.559Z" fill="white" stroke="#010101" stroke-width="1.5" stroke-linecap="round" stroke-linejoin="round"></path>
<path d="M209.834 313.845C230.659 308.787 249.775 304.091 260.737 300.983C260.737 315.899 262.423 320.746 262.423 335.101C253.551 336.904 248.527 338.941 238.374 341.44" stroke="#010101" stroke-width="1.5" stroke-linecap="round" stroke-linejoin="round"></path>
<path d="M28.237 453.119C31.472 451.117 34.706 449.114 37.941 447.112" stroke="#010101" stroke-width="1.5" stroke-linecap="round" stroke-linejoin="round"></path>
<path d="M461.449 345.354C460.157 345.179 458.791 345.804 458.078 346.895C457.365 347.986 457.342 349.488 458.021 350.601C459.23 352.583 462.546 352.676 463.918 350.803C465.29 348.93 464.295 345.738 461.45 345.353L461.449 345.354Z" fill="#010101"></path>
<path d="M412.417 140.986L416.695 137.466C416.519 137.565 416.343 137.665 412.417 140.986Z" stroke="#010101" stroke-width="1.5" stroke-linecap="round" stroke-linejoin="round"></path>
<path d="M98.124 231.061C99.608 231.926 101.091 232.791 102.575 233.656" stroke="#010101" stroke-width="1.5" stroke-linecap="round" stroke-linejoin="round"></path>
<path d="M121.933 324.527C121.01 324.402 120.034 324.848 119.525 325.628C119.016 326.407 118.999 327.48 119.484 328.275C120.348 329.691 122.716 329.757 123.696 328.419C124.676 327.081 123.965 324.801 121.933 324.526V324.527Z" fill="#010101"></path>
<path d="M207.515 163.969C206.961 163.894 206.376 164.162 206.07 164.63C205.764 165.098 205.754 165.741 206.045 166.218C206.563 167.067 207.984 167.107 208.572 166.305C209.16 165.502 208.735 164.134 207.515 163.969Z" fill="#010101"></path>
</g>
<defs>
<clipPath id="clip0_35_946">
<rect width="649.928" height="599.374" fill="white"></rect>
</clipPath>
</defs>
</svg>