<svg width="476" height="635" viewBox="0 0 476 635" fill="none" xmlns="http://www.w3.org/2000/svg" style="width: 100%; height: 100%;">
<g clip-path="url(#clip0_35_2246)">
<path d="M101.443 67.491C87.253 65.35 35.224 71.306 50.576 121.527C52.441 127.628 56.42 133.105 61.545 136.905C68.573 142.116 77.727 143.307 86.453 143.938C100.49 144.953 114.577 144.963 128.65 144.972C174.202 145.003 215.487 144.362 264.888 141.379C287.492 140.014 308.597 126.313 308.571 99.086C308.56 88.114 292.408 40.974 247.015 48.227C244.742 28.386 218.64 -9.97904 158.121 3.59196C137.164 8.29096 108.894 30.139 101.443 67.491Z" fill="white" stroke="#010101" stroke-width="1.5" stroke-linecap="round" stroke-linejoin="round"></path>
<path d="M111.072 88.301C110.525 88.333 109.939 88.379 109.512 88.722C108.826 89.273 108.852 90.305 108.939 91.18C109.257 94.378 109.575 97.576 109.892 100.775C126.283 100.127 142.674 99.479 159.065 98.831C190.641 97.583 222.239 96.334 253.834 96.945C254.512 96.958 255.268 96.944 255.757 96.474C256.147 96.1 256.262 95.53 256.341 94.995C256.84 91.61 256.62 88.121 255.7 84.825C227.701 84.875 135.057 86.912 111.072 88.301Z" fill="#E3E3FF" stroke="#010101" stroke-width="1.5" stroke-linecap="round" stroke-linejoin="round"></path>
<path d="M357.147 262.066L438.691 630.291" stroke="#010101" stroke-width="1.5" stroke-linecap="round" stroke-linejoin="round"></path>
<path d="M222.439 260.621L303.982 628.846" stroke="#010101" stroke-width="1.5" stroke-linecap="round" stroke-linejoin="round"></path>
<path d="M222.439 260.621L303.982 628.846" stroke="#010101" stroke-width="1.5" stroke-linecap="round" stroke-linejoin="round"></path>
<path d="M230.26 296.978C273.604 296.314 318.399 296.868 364.347 295.614" stroke="#010101" stroke-width="1.5" stroke-linecap="round" stroke-linejoin="round"></path>
<path d="M279.437 518.521C322.781 517.857 367.576 518.411 413.524 517.157" stroke="#010101" stroke-width="1.5" stroke-linecap="round" stroke-linejoin="round"></path>
<path d="M267.549 461.84C310.893 461.176 355.688 461.73 401.636 460.476" stroke="#010101" stroke-width="1.5" stroke-linecap="round" stroke-linejoin="round"></path>
<path d="M255.074 406.777C298.418 406.113 343.213 406.667 389.161 405.413" stroke="#010101" stroke-width="1.5" stroke-linecap="round" stroke-linejoin="round"></path>
<path d="M242.745 351.653C286.089 350.989 330.884 351.543 376.832 350.289" stroke="#010101" stroke-width="1.5" stroke-linecap="round" stroke-linejoin="round"></path>
<path d="M293.056 578.767C336.4 578.103 381.195 578.657 427.143 577.403" stroke="#010101" stroke-width="1.5" stroke-linecap="round" stroke-linejoin="round"></path>
<path d="M137.272 387.29C138.556 337.62 137.25 287.88 133.36 238.355C91.694 234.14 46.499 238.126 3.668 240.656C1.696 288.919 0.946 338.573 0.75 389.245C47.578 390.454 96.6 387.146 137.272 387.29Z" fill="#E3E3FF" stroke="#010101" stroke-width="1.5" stroke-linecap="round" stroke-linejoin="round"></path>
<path d="M135.359 263.161C96.489 263.181 47.079 265.031 2.629 264.161C2.929 254.401 3.269 250.31 3.669 240.66C46.499 238.13 91.689 234.14 133.359 238.35C134.129 248.14 134.799 253.361 135.359 263.161Z" fill="#008653" stroke="#010101" stroke-width="1.5" stroke-linecap="round" stroke-linejoin="round"></path>
<path d="M312.584 495.441C312.321 499.496 308.712 502.43 305.308 504.649C301.494 507.135 297.538 508.084 293.465 510.118C291.917 510.891 290.286 511.684 289.269 513.084C288.252 514.484 288.122 516.7 289.476 517.779C290.358 518.483 291.582 518.52 292.71 518.52C310.265 518.525 327.384 519.201 345.327 517.838C345.992 517.787 346.698 517.608 347.152 517.119C347.758 516.466 347.668 515.452 347.54 514.571C346.728 508.989 345.764 501.432 344.952 495.849C344.776 494.636 344.571 493.356 343.791 492.41C343.132 491.611 342.146 491.159 341.165 490.828C337.383 489.552 333.278 489.704 329.305 490.088C323.795 490.621 318.326 491.572 312.585 495.44L312.584 495.441Z" fill="white" stroke="#010101" stroke-width="1.5" stroke-linecap="round" stroke-linejoin="round"></path>
<path d="M443.635 546.638C443.437 541.777 442.676 536.943 441.376 532.288C441.272 531.916 441.149 531.521 440.863 531.289C440.422 530.932 439.803 531.111 439.284 531.304C433.736 533.365 428.188 535.425 422.641 537.486C422.836 541.091 423.032 544.695 423.227 548.3" fill="white"></path>
<path d="M443.635 546.638C443.437 541.777 442.676 536.943 441.376 532.288C441.272 531.916 441.149 531.521 440.863 531.289C440.422 530.932 439.803 531.111 439.284 531.304C433.736 533.365 428.188 535.425 422.641 537.486C422.836 541.091 423.032 544.695 423.227 548.3" stroke="#010101" stroke-width="1.5" stroke-linecap="round" stroke-linejoin="round"></path>
<path d="M405.832 578.085C413.339 578.101 419.784 577.326 427.237 576.343C428.728 576.146 430.276 575.906 431.524 574.994C433.487 573.558 434.227 570.855 434.931 568.395C436.61 562.53 438.85 556.857 441.603 551.497C442.738 549.287 443.999 546.708 443.13 544.358C442.798 543.46 442.18 542.718 441.484 542.118C439.012 539.99 435.553 539.584 432.496 540.411C423.165 542.937 423.303 547.14 420.917 551.453C417.24 558.099 414.017 564.094 408.701 569.256C406.927 570.979 405.358 571.953 403.307 573.261C402.611 573.705 401.857 574.244 401.673 575.1C401.462 576.082 402.143 577.083 402.989 577.494C403.835 577.905 404.832 578.017 405.831 578.088L405.832 578.085Z" fill="white" stroke="#010101" stroke-width="1.5" stroke-linecap="round" stroke-linejoin="round"></path>
<path d="M343.959 134.602C342.571 138.417 341.184 142.233 339.796 146.048C338.536 149.513 337.268 153.008 336.743 156.657C336.218 160.306 336.483 164.168 338.168 167.448C339.853 170.727 343.12 173.317 346.798 173.564C347.246 176.272 347.44 180.522 347.511 183.671C353.538 184.673 367.382 183.895 371.224 182.918C371.413 180.299 371.255 177.655 370.9 175.118C371.193 162.382 366.879 149.589 358.935 139.63C357.562 137.909 356.068 136.255 354.267 134.989C351.083 132.75 347.168 131.868 343.959 134.602Z" fill="white" stroke="#010101" stroke-width="1.5" stroke-linecap="round" stroke-linejoin="round"></path>
<path d="M341.382 189.571C342.5 186.943 343.907 184.437 345.568 182.114L367.412 182.139C369.774 182.142 372.142 182.145 374.489 182.414C374.738 182.443 375.007 182.484 375.181 182.665C375.322 182.812 375.371 183.022 375.414 183.221C375.881 185.374 376.349 187.526 376.816 189.679" fill="#008653"></path>
<path d="M341.382 189.571C342.5 186.943 343.907 184.437 345.568 182.114L367.412 182.139C369.774 182.142 372.142 182.145 374.489 182.414C374.738 182.443 375.007 182.484 375.181 182.665C375.322 182.812 375.371 183.022 375.414 183.221C375.881 185.374 376.349 187.526 376.816 189.679" stroke="#010101" stroke-width="1.5" stroke-linecap="round" stroke-linejoin="round"></path>
<path d="M250.161 633.176C245.504 623.865 238.383 619.91 229.619 614.291C224.088 610.745 218.112 607.751 211.692 606.352C205.272 604.952 198.357 605.235 192.396 607.999C190.682 608.794 189.034 609.807 187.788 611.227C185.213 614.162 184.717 618.481 185.581 622.288C186.445 626.095 188.49 629.514 190.552 632.829C191.416 634.218 234.357 633.469 250.16 633.175L250.161 633.176Z" fill="#55D087" stroke="#010101" stroke-width="1.5" stroke-linecap="round" stroke-linejoin="round"></path>
<path d="M250.114 632.267C240.005 623.54 231.594 617.54 224.274 608.441C216.955 599.343 211.689 593.238 212.361 581.58C212.688 575.908 214.429 570.084 218.438 566.059C225.031 559.438 235.844 559.391 244.814 562.007C259.853 566.392 272.571 576.798 282.369 589.021C292.167 601.244 301.359 618.306 310.124 631.768C283.462 633.722 264.173 631.749 250.114 632.267Z" fill="#55D087" stroke="#010101" stroke-width="1.5" stroke-linecap="round" stroke-linejoin="round"></path>
<path d="M279.41 633.176C272.121 628.139 266.252 621.341 260.618 614.502C248.467 599.752 237.003 584.437 226.274 568.623" stroke="#010101" stroke-width="1.5" stroke-linecap="round" stroke-linejoin="round"></path>
<path d="M250.255 600.663C249.936 592.012 250.434 583.332 251.739 574.774" stroke="#010101" stroke-width="1.5" stroke-linecap="round" stroke-linejoin="round"></path>
<path d="M204.189 611.441C210.019 618.946 214.845 625.296 220.447 633.176" stroke="#010101" stroke-width="1.5" stroke-linecap="round" stroke-linejoin="round"></path>
<path d="M262.31 616.43C252.681 615.248 243.098 613.692 233.59 611.766" stroke="#010101" stroke-width="1.5" stroke-linecap="round" stroke-linejoin="round"></path>
<path d="M346.951 151.129C346.989 148.659 348.959 146.686 348.937 144.215C348.908 140.912 345.923 138.539 344.024 135.837C340.689 131.092 340.753 124.18 344.288 119.582C344.894 118.794 345.624 118.049 346.56 117.712C347.496 117.375 348.673 117.549 349.276 118.339C349.786 119.007 349.803 119.959 350.327 120.615C351.39 121.946 353.545 121.173 354.889 120.127C356.233 119.081 357.835 117.768 359.428 118.368C361.362 119.096 361.992 122.305 364.053 122.149C365.352 122.05 366.223 120.522 367.525 120.49C369.087 120.451 369.757 122.383 370.64 123.673C371.638 125.131 373.298 125.971 374.907 126.701C378.306 128.245 381.834 129.595 384.884 131.748C387.934 133.901 390.522 137.029 391.051 140.725C391.391 143.103 390.863 145.512 390.279 147.842C388.959 153.106 387.321 158.337 384.698 163.088C382.075 167.839 378.403 172.117 373.688 174.805C372.056 175.736 370.289 176.476 368.427 176.725C364.109 177.302 359.944 175.221 355.72 174.154C353.857 173.683 351.861 173.368 350.365 172.162C347.631 169.958 347.686 165.836 348.12 162.351C348.243 161.367 348.529 160.19 349.475 159.892C350.34 159.619 351.197 160.266 352.074 160.501C353.428 160.864 354.904 160.178 355.803 159.102C356.702 158.026 357.115 156.627 357.357 155.245C357.583 153.95 357.674 152.591 357.263 151.342C356.852 150.093 355.851 148.973 354.558 148.733C352.011 148.26 350.771 151.3 349.017 152.579C348.731 152.787 346.937 151.948 346.95 151.127L346.951 151.129Z" fill="#010101" stroke="#010101" stroke-width="1.5" stroke-linecap="round" stroke-linejoin="round"></path>
<path d="M200.732 54.282C188.388 58.872 177.017 63.361 165.634 69.089C165.251 69.282 164.869 69.541 164.691 69.931C164.466 70.423 164.65 70.995 164.836 71.503C168.703 82.082 172.662 92.626 176.714 103.135C179.441 101.882 182.167 100.629 184.614 100.093C198.345 95.188 211.906 89.804 225.261 83.954C221.252 75.573 216.867 66.498 212.858 58.117C212.481 57.329 204.041 55.265 200.732 54.282Z" fill="#007787 " stroke="#010101" stroke-width="1.5" stroke-linecap="round" stroke-linejoin="round"></path>
<path d="M200.704 54.304C201.706 56.845 202.708 59.386 203.709 61.927C206.651 60.667 209.592 59.407 212.534 58.147" stroke="#010101" stroke-width="1.5" stroke-linecap="round" stroke-linejoin="round"></path>
<path d="M193.678 108.895C191.569 105.951 190.036 102.596 189.191 99.0739C188.713 97.0829 183.011 91.2709 180.392 83.7479C179.642 81.5929 182.01 81.2079 182.974 82.2599C185.017 84.4879 187.584 88.0279 189.329 89.9099C186.693 87.2799 183.458 83.2249 182.159 79.7359C181.949 79.1719 181.776 78.5699 181.865 77.9739C181.954 77.3779 182.369 76.7959 182.961 76.6849C183.723 76.5419 184.387 77.1799 184.897 77.7629C187.43 80.6589 190.421 84.9249 192.801 87.8259C191.057 85.9259 188.854 82.6539 187.244 80.6399C186.047 79.1429 184.873 77.5869 184.191 75.7949C183.998 75.2869 183.844 74.7469 183.896 74.2049C183.948 73.6629 184.243 73.1189 184.739 72.8959C185.66 72.4829 186.637 73.3009 187.306 74.0559C190.271 77.4069 193.535 82.2689 195.957 85.7749C193.53 82.9769 190.868 78.6179 189.065 75.3829C188.688 74.7079 188.352 73.7889 188.891 73.2349C189.213 72.9039 189.748 72.8629 190.184 73.0159C190.62 73.1689 190.978 73.4819 191.318 73.7939C193.708 75.9829 195.806 78.4679 197.896 80.9439C198.845 82.0689 199.868 83.1279 200.362 83.7629C201.625 85.3889 202.481 87.2389 204.395 91.1909C204.607 91.6289 209.6 90.0329 209.6 90.0329C209.6 90.0329 208.457 102.428 208.579 103.34" fill="white"></path>
<path d="M193.678 108.895C191.569 105.951 190.036 102.596 189.191 99.0739C188.713 97.0829 183.011 91.2709 180.392 83.7479C179.642 81.5929 182.01 81.2079 182.974 82.2599C185.017 84.4879 187.584 88.0279 189.329 89.9099C186.693 87.2799 183.458 83.2249 182.159 79.7359C181.949 79.1719 181.776 78.5699 181.865 77.9739C181.954 77.3779 182.369 76.7959 182.961 76.6849C183.723 76.5419 184.387 77.1799 184.897 77.7629C187.43 80.6589 190.421 84.9249 192.801 87.8259C191.057 85.9259 188.854 82.6539 187.244 80.6399C186.047 79.1429 184.873 77.5869 184.191 75.7949C183.998 75.2869 183.844 74.7469 183.896 74.2049C183.948 73.6629 184.243 73.1189 184.739 72.8959C185.66 72.4829 186.637 73.3009 187.306 74.0559C190.271 77.4069 193.535 82.2689 195.957 85.7749C193.53 82.9769 190.868 78.6179 189.065 75.3829C188.688 74.7079 188.352 73.7889 188.891 73.2349C189.213 72.9039 189.748 72.8629 190.184 73.0159C190.62 73.1689 190.978 73.4819 191.318 73.7939C193.708 75.9829 195.806 78.4679 197.896 80.9439C198.845 82.0689 199.868 83.1279 200.362 83.7629C201.625 85.3889 202.481 87.2389 204.395 91.1909C204.607 91.6289 209.6 90.0329 209.6 90.0329C209.6 90.0329 208.457 102.428 208.579 103.34" stroke="#010101" stroke-width="1.5" stroke-linecap="round" stroke-linejoin="round"></path>
<path d="M191.835 115.8L190.285 111.853C190.087 111.348 189.896 110.748 190.191 110.292C190.386 109.991 190.743 109.844 191.078 109.716C197.508 107.253 204.053 105.093 210.686 103.245C211.013 103.154 211.373 103.066 211.68 103.211C211.925 103.327 212.082 103.568 212.22 103.801C213.123 105.33 213.735 107.03 214.013 108.783" fill="white"></path>
<path d="M191.835 115.8L190.285 111.853C190.087 111.348 189.896 110.748 190.191 110.292C190.386 109.991 190.743 109.844 191.078 109.716C197.508 107.253 204.053 105.093 210.686 103.245C211.013 103.154 211.373 103.066 211.68 103.211C211.925 103.327 212.082 103.568 212.22 103.801C213.123 105.33 213.735 107.03 214.013 108.783" stroke="#010101" stroke-width="1.5" stroke-linecap="round" stroke-linejoin="round"></path>
<path d="M424.819 300.563C428.568 316.932 430.832 337.891 428.642 357.744C425.217 388.785 423.058 407.436 422.516 431.282C434.373 474.431 445.14 519.472 452.099 539.631C439.586 541.307 427.048 544.506 414.509 546.205C409.773 534.352 405.403 522.344 401.033 510.337C392.978 488.204 384.887 465.943 380.627 442.778C375.027 412.331 374.678 378.097 375.849 347.161C360.143 361.4 338.213 384.654 322.119 399.908C332.744 436.064 340.23 465.279 349.59 497.131C339.089 498.971 321.302 499.234 310.126 498.182C300.6 473.342 295.78 447.114 286.271 422.667C282.442 412.823 278.546 402.542 279.476 392.021C280.453 380.968 286.616 371.146 292.607 361.807C305.554 341.627 320.5 321.448 333.185 302.33C363.904 296.318 395.61 295.383 424.821 300.563H424.819Z" fill="#010101" stroke="#010101" stroke-width="1.5" stroke-linecap="round" stroke-linejoin="round"></path>
<path d="M392.444 433.611C399.424 434.867 406.449 435.675 413.518 436.036C413.054 435.755 412.593 435.828 392.444 433.611Z" fill="white" stroke="#010101" stroke-width="1.5" stroke-linecap="round" stroke-linejoin="round"></path>
<path d="M445.079 243.15C431.419 222.82 425.859 213.35 405.959 196.07C402.929 193.44 399.089 191.83 395.259 190.67C373.459 188.52 351.829 191.51 330.459 189.42C319.999 188.4 265.369 179.8 248.049 174.74C237.279 154.13 227.739 128.85 218.469 107.68C207.699 110.77 199.459 113.73 188.479 116.88C195.129 136.1 202.269 152.82 208.909 172.05C213.199 184.45 218.169 197.76 229.159 204.93C236.609 209.79 245.259 212.07 254.069 213.23C273.159 215.74 292.239 219.75 312.189 222.95C318.979 253.09 326.409 275.51 332.879 304.26C364.049 303.93 394.339 303.33 426.109 302.42C424.899 299.05 424.209 296.26 423.529 293.48C432.209 288.85 441.709 283.19 448.679 276.25C451.969 272.98 455.179 269.18 455.729 264.58C456.249 260.25 449.369 249.52 445.079 243.15ZM415.229 264.23L408.619 240.22C413.309 244.85 420.469 253.41 423.949 257.75C420.699 260.64 418.229 262.07 415.229 264.23Z" fill="#008653" stroke="#010101" stroke-width="1.5" stroke-linecap="round" stroke-linejoin="round"></path>
<path d="M404.882 227.648C411.631 249.402 415.854 268.272 423.947 294.362" stroke="#010101" stroke-width="1.5" stroke-linecap="round" stroke-linejoin="round"></path>
<path d="M51.639 296.428C73.987 294.847 96.365 293.683 118.756 292.939C118.179 293.033 117.602 293.126 117.025 293.22" fill="white"></path>
<path d="M51.639 296.428C73.987 294.847 96.365 293.683 118.756 292.939C118.179 293.033 117.602 293.126 117.025 293.22" stroke="#010101" stroke-width="1.5" stroke-linecap="round" stroke-linejoin="round"></path>
<path d="M50.66 325.561C73.111 324.744 95.562 323.928 118.013 323.111Z" fill="white"></path>
<path d="M50.66 325.561C73.111 324.744 95.562 323.928 118.013 323.111" stroke="#010101" stroke-width="1.5" stroke-linecap="round" stroke-linejoin="round"></path>
<path d="M51.642 357.29C68.833 358.216 86.075 358.197 103.264 357.234Z" fill="white"></path>
<path d="M51.642 357.29C68.833 358.216 86.075 358.197 103.264 357.234" stroke="#010101" stroke-width="1.5" stroke-linecap="round" stroke-linejoin="round"></path>
<path d="M27.817 287.213C25.7 287.437 23.746 288.66 22.464 290.359C21.182 292.058 20.547 294.198 20.498 296.326C20.473 297.405 20.597 298.502 21.018 299.496C21.489 300.606 22.312 301.539 23.249 302.298C24.715 303.487 26.503 304.296 28.378 304.516C30.253 304.736 32.209 304.354 33.814 303.362C35.64 302.234 36.955 300.342 37.471 298.259C37.986 296.176 37.716 293.924 36.809 291.979C36.322 290.935 35.647 289.963 34.744 289.248C32.7 287.629 30.844 287.02 27.817 287.213Z" fill="white" stroke="#010101" stroke-width="1.5" stroke-linecap="round" stroke-linejoin="round"></path>
<path d="M27.817 317.369C25.7 317.593 23.746 318.816 22.464 320.515C21.182 322.214 20.547 324.354 20.498 326.482C20.473 327.561 20.597 328.658 21.018 329.652C21.489 330.762 22.312 331.695 23.249 332.454C24.715 333.643 26.503 334.452 28.378 334.672C30.253 334.893 32.209 334.51 33.814 333.518C35.64 332.39 36.955 330.498 37.471 328.415C37.986 326.332 37.716 324.08 36.809 322.135C36.322 321.091 35.647 320.119 34.744 319.404C32.7 317.785 30.844 317.177 27.817 317.37V317.369Z" fill="white" stroke="#010101" stroke-width="1.5" stroke-linecap="round" stroke-linejoin="round"></path>
<path d="M27.817 347.524C25.7 347.748 23.746 348.971 22.464 350.67C21.182 352.369 20.547 354.509 20.498 356.637C20.473 357.716 20.597 358.813 21.018 359.807C21.489 360.917 22.312 361.85 23.249 362.609C24.715 363.798 26.503 364.607 28.378 364.827C30.253 365.048 32.209 364.665 33.814 363.673C35.64 362.545 36.955 360.653 37.471 358.57C37.986 356.487 37.716 354.235 36.809 352.29C36.322 351.246 35.647 350.274 34.744 349.559C32.7 347.94 30.844 347.332 27.817 347.525V347.524Z" fill="white" stroke="#010101" stroke-width="1.5" stroke-linecap="round" stroke-linejoin="round"></path>
<path d="M217.591 462.172C218.766 418.187 217.571 374.139 214.013 330.282C175.912 326.549 134.584 330.079 95.418 332.32C93.615 375.06 92.929 419.031 92.75 463.903C135.571 464.973 180.399 462.044 217.591 462.172Z" fill="white" stroke="#010101" stroke-width="1.5" stroke-linecap="round" stroke-linejoin="round"></path>
<path d="M215.989 353.83C179.969 353.85 135.459 356.5 94.389 355.61C94.679 346.12 95.029 341.69 95.419 332.32C134.589 330.08 175.909 326.55 214.009 330.28C214.779 339.79 215.439 344.31 215.989 353.83Z" fill="#010101" stroke="#010101" stroke-width="1.5" stroke-linecap="round" stroke-linejoin="round"></path>
<path d="M196.64 396.604C185.571 384.474 171.81 372.584 152.946 374.016C136.572 375.259 126.714 380.378 114.138 397.26C121.401 403.838 132.255 414.554 156.514 413.117C171.1 412.253 191.853 404.281 196.641 396.604H196.64Z" fill="#E3E3FF" stroke="#010101" stroke-width="1.5" stroke-linecap="round" stroke-linejoin="round"></path>
<path d="M144.059 381.239C140.084 384.718 137.261 389.886 137.84 395.137C138.295 399.268 140.795 403.022 144.145 405.482C147.495 407.941 151.627 409.187 155.768 409.546C161.6 410.052 168.217 408.41 171.25 403.403C172.558 401.244 173.057 398.664 173.012 396.14C172.928 391.481 172.86 386.962 168.97 382.314C165.979 378.741 153.033 373.386 144.059 381.239Z" fill="white" stroke="#010101" stroke-width="1.5" stroke-linecap="round" stroke-linejoin="round"></path>
<path d="M119.236 430.229C142.547 430.303 164.54 429.007 190.039 430.103Z" fill="white"></path>
<path d="M119.236 430.229C142.547 430.303 164.54 429.007 190.039 430.103" stroke="#010101" stroke-width="1.5" stroke-linecap="round" stroke-linejoin="round"></path>
<path d="M133.939 441.496C147.783 441.54 161.627 440.805 175.463 441.293Z" fill="white"></path>
<path d="M133.939 441.496C147.783 441.54 161.627 440.805 175.463 441.293" stroke="#010101" stroke-width="1.5" stroke-linecap="round" stroke-linejoin="round"></path>
<path d="M106.01 509.54C95.938 514.366 84.878 519.318 73.992 516.827C65.263 514.83 58.19 508.232 53.383 500.677C50.893 496.762 48.856 492.39 48.667 487.754C48.478 483.118 50.454 478.188 54.451 475.831C58.448 473.474 64.424 474.588 66.534 478.721C68.487 482.546 66.478 487.607 62.788 489.805C59.098 492.003 54.293 491.674 50.419 489.818C46.546 487.962 43.474 484.771 40.837 481.38C35.378 474.36 31.32 465.704 32.066 456.843" stroke="#010101" stroke-width="1.5" stroke-linecap="round" stroke-linejoin="round"></path>
<path d="M343.185 70.0899C342.262 69.9649 341.286 70.4109 340.777 71.1909C340.268 71.9709 340.251 73.0429 340.736 73.8379C341.6 75.2539 343.968 75.3199 344.948 73.9819C345.928 72.6439 345.217 70.3649 343.185 70.0899Z" fill="#010101"></path>
<path d="M456.204 347.371C454.83 347.185 453.376 347.85 452.617 349.011C451.858 350.172 451.834 351.771 452.556 352.955C453.842 355.064 457.371 355.163 458.831 353.17C460.291 351.177 459.231 347.781 456.204 347.371Z" fill="#010101"></path>
<path d="M217.857 490.715C217.303 490.64 216.718 490.908 216.412 491.376C216.106 491.844 216.096 492.487 216.387 492.964C216.905 493.813 218.326 493.853 218.914 493.051C219.502 492.248 219.077 490.88 217.857 490.715Z" fill="#010101"></path>
<path d="M81.375 180.755C80.083 180.58 78.717 181.205 78.004 182.296C77.291 183.387 77.268 184.889 77.947 186.002C79.156 187.984 82.472 188.077 83.844 186.204C85.216 184.331 84.221 181.139 81.376 180.754L81.375 180.755Z" fill="#010101"></path>
<path d="M443.972 177.949L448.25 174.429C448.074 174.528 447.898 174.628 443.972 177.949Z" stroke="#010101" stroke-width="1.5" stroke-linecap="round" stroke-linejoin="round"></path>
<path d="M469.335 598.695C471.007 599.085 472.68 599.476 474.352 599.866" stroke="#010101" stroke-width="1.5" stroke-linecap="round" stroke-linejoin="round"></path>
<path d="M140.939 532.298C142.113 531.045 143.288 529.792 144.462 528.539" stroke="#010101" stroke-width="1.5" stroke-linecap="round" stroke-linejoin="round"></path>
</g>
<defs>
<clipPath id="clip0_35_2246">
<rect width="475.102" height="634.393" fill="white"></rect>
</clipPath>
</defs>
</svg>